<svg xmlns="http://www.w3.org/2000/svg" xmlns:xlink="http://www.w3.org/1999/xlink" version="1.0" viewBox="0 0 300 426" fill="white">
  <defs>
    <g id="b">
      <path id="a" d="M0 0v1h1z" transform="rotate(18 3 -1)"/>
      <use transform="scale(-1 1)" xlink:href="#a"/>
    </g>
    <g id="c" transform="translate(1235 1050) scale(300.3)">
      <use xlink:href="#b"/>
      <use transform="rotate(72)" xlink:href="#b"/>
      <use transform="rotate(-72)" xlink:href="#b"/>
      <use transform="rotate(144)" xlink:href="#b"/>
      <use transform="rotate(-144)" xlink:href="#b"/>
    </g>
    <g id="d">
      <use xlink:href="#c"/>
      <use x="1235" xlink:href="#c"/>
      <use x="2470" xlink:href="#c"/>
      <use x="3705" xlink:href="#c"/>
      <use x="4940" xlink:href="#c"/>
    </g>
  </defs>
  <path d="M88 424c-10 0-14-1-14-2a3645 3645 0 0016-124l-32-47-55-82c-3-6-3-9 5-20l14-19a2366 2366 0 0149-66c2 0 75 32 88 39 4 1 6 3 7 6s-2 24-4 27c-1 2-6 3-29 6-22 3-25 2-37-11l-10-9c-2 1 1 12 3 16 5 8 4 12-7 13-7 2-10 3-8 5l20 9 23 10 3 5 6 11c51 87 49 85 49 89l-9 8c-4 2-7 5-6 6l7 1 6-1v12a1384 1384 0 01-10 116c-1 2-49 3-75 2zm89 0c-5-1-6-4-5-14a2712 2712 0 0112-114h13l-7-13a4109 4109 0 01-61-106h12c9 1 14 3 28 9 26 12 27 12 41 27 9 9 14 13 16 13 3 0 8-3 31-21l16-11c3 0 3 5 0 23-8 46-17 68-36 88l-8 10 1 53c0 48 0 53-2 55l-25 1h-26zm37-216c-9-9-11-12-10-14l12-14a923 923 0 0038-42l14-14c3-1 31 32 31 37a4557 4557 0 00-72 59c-1 0-7-5-13-12zm-41-26l-18-8c-1-2 5-11 33-48 34-46 35-47 38-45 4 2 35 33 35 35 0 3-1 4-46 54l-15 18c-3 4-8 3-27-6zm-53-20c-20-8-23-9-21-12h8c8 2 15 1 31-2 23-5 25-5 20 4-2 5-14 18-16 18l-22-8zm51-43l-1-16-15-9-14-9c0-2 28-46 31-48 4-3 7-1 26 18l19 19-2 3a440 440 0 01-37 49c-7 10-8 9-7-7zm-43-39c-7-2-45-19-45-20-2-2-2-2 8-16l18-24c11-15 14-18 17-18 2 0 14 8 28 19 8 8 10 9 9 12l-31 47h-4z"/>
</svg>
